<?xml version="1.0" encoding="utf-8"?>
<!-- Generator: Adobe Illustrator 25.2.0, SVG Export Plug-In . SVG Version: 6.00 Build 0)  -->
<svg version="1.1" id="katman_1" xmlns="http://www.w3.org/2000/svg" xmlns:xlink="http://www.w3.org/1999/xlink" x="0px" y="0px"
	 viewBox="0 0 1019.3 729.9" style="enable-background:new 0 0 1019.3 729.9;" xml:space="preserve">
<style type="text/css">
	.st0{fill:#EA6101;}
	.st1{fill:#FFFFFF;}
	.st2{fill:#6F6F6E;}
</style>
<path class="st0" d="M562.4,489.9H456.9c-78.4,0-142-63.6-142-142V228.7c0-78.4,63.6-142,142-142h105.5c78.4,0,142,63.6,142,142
	v119.2C704.4,426.3,640.8,489.9,562.4,489.9z"/>
<g>
	<path class="st1" d="M387.3,209.5c0,52.6,0,105.1,0,157.7c12.7,0,25.4,0,38.1,0c0-41.3,0-82.6,0-123.9c25.5,0.1,50.9-0.3,76.4,0.1
		c14.6-0.7,27,13.2,26.8,28c0.4,31.9,0,63.9,0.2,95.8c12.7,0,25.4,0,38.1,0c0-36.6,0-73.2,0-109.7c1.8-25.9-21.7-48.6-46.1-47.8
		C476.2,209.3,431.7,209.6,387.3,209.5z"/>
	<ellipse class="st1" cx="613" cy="288.3" rx="26.9" ry="111.5"/>
	<ellipse class="st1" cx="477" cy="319.3" rx="26.9" ry="67.7"/>
</g>
<g>
	<g>
		<g>
			<path class="st2" d="M322.6,575.3L295.7,540h18.1l18.1,24.3l17.8-24.3h18.1l-26.8,34.1l27.8,36.6h-18.2l-18.8-25.4l-18.8,25.4
				h-18.2L322.6,575.3z"/>
		</g>
	</g>
	<g>
		<g>
			<path class="st2" d="M384.5,540.3h14.9v70.8h-14.9V540.3z"/>
		</g>
	</g>
	<g>
		<g>
			<path class="st2" d="M709.8,540.3h14.9v70.8h-14.9V540.3z"/>
		</g>
	</g>
	<g>
		<g>
			<path class="st2" d="M596.3,546.1c4.2-4.5,10.8-6.7,19.7-6.7h1.8c9.3,0,16.1,3,20.5,9c4.2-6,11-9,20.4-9h1.8
				c9,0,15.6,2.2,19.9,6.7c4.2,4.5,6.4,11.5,6.4,21.2v43.8h-12.8v-40.5c0-6.3-1.1-10.8-3.4-13.3c-2.2-2.6-5.9-3.9-11.1-3.9
				c-5.2,0-9,1.4-11.3,4.2c-2.3,2.8-3.5,7.4-3.5,13.8v39.8H632v-39.8c0-6.5-1.2-11.1-3.5-13.9c-2.3-2.7-6.2-4.1-11.5-4.1
				c-5.1,0-8.8,1.3-11.1,3.9c-2.2,2.6-3.4,7-3.4,13.3v40.5h-12.8v-43.8C589.8,557.6,592,550.6,596.3,546.1z"/>
		</g>
	</g>
	<g>
		<g>
			<path class="st2" d="M504.2,577.1v-2.8c0-12.1,2.6-20.9,7.7-26.5c5.2-5.6,13.3-8.4,24.5-8.4h2.4c11.1,0,19.3,2.8,24.5,8.4
				c5.2,5.6,7.7,14.4,7.7,26.5v2.8c0,12.1-2.6,20.9-7.7,26.5c-5.2,5.6-13.3,8.4-24.5,8.4h-2.4c-11.1,0-19.3-2.8-24.5-8.4
				C506.7,598,504.2,589.2,504.2,577.1z M522.5,593.3c2.7,3.2,7.7,4.7,15.1,4.7c7.3,0,12.4-1.6,15.1-4.7c2.7-3.2,4.1-9,4.1-17.7
				s-1.4-14.5-4.1-17.7c-2.7-3.1-7.7-4.6-15.1-4.6c-7.3,0-12.4,1.6-15.1,4.7s-4.1,9-4.1,17.6S519.8,590.1,522.5,593.3z"/>
		</g>
	</g>
	<g>
		<g>
			<path class="st2" d="M486.9,591.2c0,13.6-9.4,20.8-33.4,20.8c-22.8,0-33.6-6.3-33.6-20.7c0-16.3,12.6-21.6,32.2-21.6h18V563
				c0-9.4-7.2-11-18.7-11c-9.4,0-18.3,0.8-23.2,2.2v-11.7c5.8-1.5,13.6-2.1,22-2.1c22.5,0,36.7,5,36.7,22.2V591.2z M470.1,580.8H452
				c-10.6,0-15.3,2.9-15.3,10c0,8.8,7.6,9.9,16.5,9.9c9.7,0,16.9-1.4,16.9-10.2V580.8z"/>
		</g>
	</g>
</g>
</svg>
